<svg xmlns="http://www.w3.org/2000/svg" width="400" height="400"><defs><linearGradient id="a" gradientUnits="userSpaceOnUse" x1="-.136" y1=".5" x2=".5" y2=".472" gradientTransform="matrix(48.4375 0 0 17.96875 27.344 116.797)"><stop offset="0" stop-color="#98d6fa" stop-opacity=".102"/><stop offset="1" stop-color="#47b0f1" stop-opacity=".102"/></linearGradient><linearGradient id="b" gradientUnits="userSpaceOnUse" x1="-.136" y1=".5" x2=".5" y2=".472" gradientTransform="matrix(48.4375 0 0 17.96875 300.781 50.39)"><stop offset="0" stop-color="#98d6fa" stop-opacity=".102"/><stop offset="1" stop-color="#47b0f1" stop-opacity=".102"/></linearGradient><linearGradient id="c" gradientUnits="userSpaceOnUse" x1="0" y1="-.031" x2="1" y2="-.031" gradientTransform="matrix(363.28125 0 0 96.09375 24.219 278.125)"><stop offset="0" stop-color="#fff5de"/><stop offset="1" stop-color="#fbd2ac"/></linearGradient><linearGradient id="d" gradientUnits="userSpaceOnUse" x1="-.136" y1=".5" x2=".5" y2=".476" gradientTransform="matrix(29.2461 0 0 9.99219 253.582 78.543)"><stop offset="0" stop-color="#98d6fa"/><stop offset="1" stop-color="#47b0f1"/></linearGradient><linearGradient id="e" gradientUnits="userSpaceOnUse" x1="-.136" y1=".5" x2=".5" y2=".476" gradientTransform="matrix(20.26953 0 0 6.92188 290.66 76.715)"><stop offset="0" stop-color="#98d6fa"/><stop offset="1" stop-color="#47b0f1"/></linearGradient><linearGradient id="f" gradientUnits="userSpaceOnUse" x1="-.136" y1=".5" x2=".5" y2=".476" gradientTransform="matrix(20.27344 0 0 6.92188 277.066 63.246)"><stop offset="0" stop-color="#98d6fa"/><stop offset="1" stop-color="#47b0f1"/></linearGradient><linearGradient id="g" gradientUnits="userSpaceOnUse" x1="-.136" y1=".5" x2=".5" y2=".476" gradientTransform="matrix(14.05078 0 0 4.78906 321.383 81.176)"><stop offset="0" stop-color="#98d6fa"/><stop offset="1" stop-color="#47b0f1"/></linearGradient><linearGradient id="h" gradientUnits="userSpaceOnUse" x1="-.136" y1=".5" x2=".5" y2=".434" gradientTransform="matrix(99.35547 0 0 67.125 31.129 135.426)"><stop offset="0" stop-color="#98d6fa"/><stop offset="1" stop-color="#47b0f1"/></linearGradient><linearGradient id="i" gradientUnits="userSpaceOnUse" x1=".431" y1="-.065" x2=".603" y2="0" gradientTransform="matrix(63.57422 0 0 44.64063 47.906 144.426)"><stop offset=".032" stop-color="#afdef9"/><stop offset="1" stop-color="#7cc9f9"/></linearGradient><linearGradient id="j" gradientUnits="userSpaceOnUse" x1=".059" y1=".609" x2=".6" y2=".371" gradientTransform="matrix(79.50781 0 0 84.67188 44.75 107.098)"><stop offset="0" stop-color="#98d6fa"/><stop offset="1" stop-color="#47b0f1"/></linearGradient><linearGradient id="k" gradientUnits="userSpaceOnUse" x1=".445" y1="-.065" x2=".583" y2="0" gradientTransform="matrix(55.57813 0 0 68.07031 54.578 119.04)"><stop offset=".032" stop-color="#afdef9"/><stop offset="1" stop-color="#7cc9f9"/></linearGradient><linearGradient id="l" gradientUnits="userSpaceOnUse" x1=".284" y1=".87" x2=".5" y2=".305" gradientTransform="matrix(43.23047 0 0 94.84766 93.879 108.23)"><stop offset="0" stop-color="#98d6fa"/><stop offset="1" stop-color="#47b0f1"/></linearGradient><linearGradient id="m" gradientUnits="userSpaceOnUse" x1=".431" y1="-.065" x2=".603" y2="0" gradientTransform="matrix(27.76563 0 0 74.95703 101.95 124.418)"><stop offset=".032" stop-color="#afdef9"/><stop offset="1" stop-color="#7cc9f9"/></linearGradient><linearGradient id="n" gradientUnits="userSpaceOnUse" x1="1" y1="-.118" x2="0" y2="-.118" gradientTransform="matrix(100.57813 0 0 39.52344 153.027 297.754)"><stop offset="0" stop-color="#f5dda7" stop-opacity=".4"/><stop offset="1" stop-color="#fa9a41" stop-opacity=".4"/></linearGradient><linearGradient id="o" gradientUnits="userSpaceOnUse" x1=".111" y1=".87" x2=".5" y2=".305" gradientTransform="matrix(62.5 0 0 102.22266 39.79 208.047)"><stop offset="0" stop-color="#98d6fa"/><stop offset="1" stop-color="#47b0f1"/></linearGradient><linearGradient id="p" gradientUnits="userSpaceOnUse" x1=".075" y1=".178" x2=".853" y2=".81" gradientTransform="translate(106.195 114.688) scale(187.5)"><stop offset="0" stop-color="#98d6fa"/><stop offset="1" stop-color="#47b0f1"/></linearGradient><linearGradient id="q" gradientUnits="userSpaceOnUse" x1=".111" y1=".87" x2=".5" y2=".305" gradientTransform="matrix(62.5 0 0 102.22266 297.602 208.047)"><stop offset="0" stop-color="#98d6fa"/><stop offset="1" stop-color="#47b0f1"/></linearGradient><linearGradient id="r" gradientUnits="userSpaceOnUse" x1=".14" y1=".075" x2=".875" y2="1.075" gradientTransform="matrix(50.78125 0 0 65.3164 175.508 202.98)"><stop offset="0" stop-color="#ffb859"/><stop offset="1" stop-color="#f97b61"/></linearGradient><linearGradient id="s" gradientUnits="userSpaceOnUse" x1=".021" y1=".87" x2=".5" y2=".305" gradientTransform="matrix(14.84375 0 0 21.875 192.754 208.047)"><stop offset="0" stop-color="#98d6fa"/><stop offset="1" stop-color="#47b0f1"/></linearGradient><linearGradient id="t" gradientUnits="userSpaceOnUse" x1="1" y1="-.03" x2=".006" y2="-.03" gradientTransform="matrix(17.19531 0 0 45.73047 169.004 208.973)"><stop offset="0" stop-color="#f97b61"/><stop offset="1" stop-color="#ffb859"/></linearGradient><linearGradient id="u" gradientUnits="userSpaceOnUse" x1="1" y1="-.03" x2=".006" y2="-.03" gradientTransform="matrix(19.26953 0 0 27.29688 174.598 227.691)"><stop offset="0" stop-color="#f97b61"/><stop offset="1" stop-color="#ffb859"/></linearGradient><linearGradient id="v" gradientUnits="userSpaceOnUse" x1="0" y1="-.03" x2=".994" y2="-.03" gradientTransform="matrix(17.19531 0 0 45.73047 214.848 208.973)"><stop offset="0" stop-color="#ffb859"/><stop offset="1" stop-color="#f97b61"/></linearGradient><linearGradient id="w" gradientUnits="userSpaceOnUse" x1="0" y1="-.03" x2=".994" y2="-.03" gradientTransform="matrix(19.26953 0 0 27.29688 207.176 227.691)"><stop offset="0" stop-color="#ffb859"/><stop offset="1" stop-color="#f97b61"/></linearGradient><linearGradient id="x" gradientUnits="userSpaceOnUse" x1=".863" y1="-.028" x2="0" y2="-.028" gradientTransform="matrix(66.01172 0 0 25.21484 167.293 254.152)"><stop offset="0" stop-color="#1d181c"/><stop offset=".3" stop-color="#2c2422"/><stop offset=".5" stop-color="#42352c"/><stop offset=".7" stop-color="#57352c"/><stop offset="1" stop-color="#923629"/></linearGradient><linearGradient id="y" gradientUnits="userSpaceOnUse" x1=".137" y1="-.028" x2="1" y2="-.028" gradientTransform="matrix(29.83203 0 0 62.64063 164.098 250.523)"><stop offset="0" stop-color="#1d181c"/><stop offset=".3" stop-color="#2c2422"/><stop offset=".5" stop-color="#42352c"/><stop offset=".7" stop-color="#57352c"/><stop offset="1" stop-color="#923629"/></linearGradient><linearGradient id="z" gradientUnits="userSpaceOnUse" x1=".137" y1="-.028" x2="1" y2="-.028" gradientTransform="matrix(29.83203 0 0 62.64063 205.105 250.523)"><stop offset="0" stop-color="#1d181c"/><stop offset=".3" stop-color="#2c2422"/><stop offset=".5" stop-color="#42352c"/><stop offset=".7" stop-color="#57352c"/><stop offset="1" stop-color="#923629"/></linearGradient><linearGradient id="A" gradientUnits="userSpaceOnUse" x1=".802" y1=".781" x2=".402" y2=".012" gradientTransform="matrix(15.77344 0 0 14.15625 350 293.52)"><stop offset="0" stop-color="#98d6fa"/><stop offset="1" stop-color="#47b0f1"/></linearGradient><linearGradient id="B" gradientUnits="userSpaceOnUse" x1=".17" y1=".776" x2=".731" y2=".273" gradientTransform="matrix(15.875 0 0 19.51953 356.535 288.281)"><stop offset="0" stop-color="#98d6fa"/><stop offset="1" stop-color="#47b0f1"/></linearGradient><linearGradient id="C" gradientUnits="userSpaceOnUse" x1="0" y1=".644" x2=".85" y2=".382" gradientTransform="matrix(23.82813 0 0 17.1875 342.188 296.094)"><stop offset="0" stop-color="#98d6fa"/><stop offset="1" stop-color="#47b0f1"/></linearGradient><linearGradient id="D" gradientUnits="userSpaceOnUse" x1="0" y1=".639" x2=".85" y2=".385" gradientTransform="matrix(14.84375 0 0 10.54688 359.766 302.734)"><stop offset="0" stop-color="#98d6fa"/><stop offset="1" stop-color="#47b0f1"/></linearGradient><linearGradient id="E" gradientUnits="userSpaceOnUse" x1=".224" y1="-.089" x2=".5" y2=".774" gradientTransform="matrix(10.17578 0 0 9.9961 86.438 299.121)"><stop offset="0" stop-color="#98d6fa"/><stop offset="1" stop-color="#47b0f1"/></linearGradient><linearGradient id="F" gradientUnits="userSpaceOnUse" x1=".454" y1="-.115" x2=".5" y2=".786" gradientTransform="matrix(8.9336 0 0 21.82422 88.844 287.766)"><stop offset="0" stop-color="#98d6fa"/><stop offset="1" stop-color="#47b0f1"/></linearGradient><linearGradient id="G" gradientUnits="userSpaceOnUse" x1=".477" y1="-.115" x2=".5" y2=".786" gradientTransform="matrix(6.80469 0 0 23.86328 94.477 284.262)"><stop offset="0" stop-color="#98d6fa"/><stop offset="1" stop-color="#47b0f1"/></linearGradient><linearGradient id="H" gradientUnits="userSpaceOnUse" x1=".439" y1="-.115" x2=".5" y2=".786" gradientTransform="matrix(9.70313 0 0 20.66016 98.047 288.559)"><stop offset="0" stop-color="#98d6fa"/><stop offset="1" stop-color="#47b0f1"/></linearGradient><linearGradient id="I" gradientUnits="userSpaceOnUse" x1="0" y1=".776" x2="1.132" y2=".776" gradientTransform="matrix(31.25 0 0 6.64453 79.32 303.79)"><stop offset="0" stop-color="#98d6fa"/><stop offset="1" stop-color="#47b0f1"/></linearGradient></defs><path d="M30 227.254l-1.16-5.188-.727-3.558-.84-4.508-.789-4.8-.773-5.509-.645-5.71-.503-6.184-.22-4.176-.109-4.277.004-4.38.145-4.374.305-4.375.464-4.375.653-4.348.855-4.254 1.055-4.164.95-3.082 1.085-2.988 1.223-2.887 1.363-2.8 1.523-2.72 1.688-2.585 1.855-2.461 2.02-2.34 2.183-2.176 2.38-2.023 2.593-1.875 2.817-1.727 2.3-1.2 2.47-1.089 2.64-.973 2.828-.855 3.023-.734 6.914-1.34 6.547-1.09 6.195-.856 6.227-.707 5.898-.554 5.583-.407 8.28-.457 7.641-.316 7.438-.281 6.871-.324 4.512-.293 4.285-.391 4.058-.488 4.04-.645 3.855-.82 3.68-.992 2.715-.899 2.644-1.043 2.582-1.195 2.52-1.344 2.414-1.484 2.39-1.692 2.364-1.91 2.34-2.136 3.488-3.32 3.113-2.821 2.766-2.367 2.847-2.274 2.559-1.875 2.293-1.52 2.379-1.394 2.195-1.11 2.02-.847 2.082-.699 2.015-.512 1.953-.34 1.977-.203 2.02-.09 2.066.02 3.156.176 3.484.308 7.778.723 2.851.098 2.887-.125 2.934-.352 2.91-.539 2.91-.707 2.918-.875 2.875-1.004 2.824-1.113 2.778-1.211 4.066-1.965 3.828-2.039 3.684-2.121 3.304-2.027 5.758-3.754 4.207-2.828 1.274-.766 2.3-1.2 2.653-1.218 3.492-1.406 2.445-.871 2.727-.856 3.027-.84 3.043-.71 3.246-.598 3.45-.485 3.464-.3 3.586-.106 3.715.105 2.766.231 2.797.395 2.836.554 2.875.723 2.796.887 2.809 1.093 2.82 1.313 2.84 1.535 2.692 1.7 2.687 1.964 2.684 2.25 2.683 2.559 1.969 2.101 1.957 2.324 1.941 2.551 1.93 2.793 1.91 3.055 1.7 3.004 1.667 3.273 1.637 3.563 1.598 3.87 1.555 4.192 1.34 4.047 1.285 4.371 1.222 4.719 1.156 5.086 1.082 5.469.59 9.148.532 9.207.418 9.191.261 9.04.07 6.011-.046 5.848-.157 5.684-.296 5.683-.446 5.43-.59 5.18-.574 3.898-.68 3.707-.777 3.523-.875 3.348-1.039 3.352-1.16 3.125-1.277 2.91-1.383 2.707-1.262 2.125-1.348 1.972-1.437 1.82-1.527 1.684-1.622 1.551-2.082 1.988-1.695 1.88-1.351 1.78-1.043 1.696-.899 1.855-.633 1.762-.386 1.68-.164 1.617.03 1.652.212 1.59.39 1.535.575 1.492.718 1.434.856 1.375.988 1.328 1.129 1.278 1.645 1.57 1.789 1.45 1.945 1.323 2.043 1.18 2.086 1.02 2.133.863 2.187.71 2.11.516 2.042.34 1.235.25.976.367.774.473.594.57.449.676.36.961.16 1.125-.067 1.328-.332 1.582-.492 1.465-.707 1.617-.95 1.797-1.23 1.985-1.754 2.468-2.14 2.645-2.575 2.836-2.703 2.691-3.043 2.75-3.41 2.809-3.527 2.644-3.809 2.59-4.101 2.527-3.145 1.762-3.262 1.668-3.39 1.574-3.52 1.48-2.066.848-2.875 1.02-3.868 1.21-6.105 1.704-7.848 1.945-8.425 1.883-9.875 1.992-10.344 1.887-11.508 1.879-11.863 1.719-12.742 1.597-8.598.938-8.852.844-9.117.742-9.117.605-9.242.465-9.367.32-9.368.157-9.363-.028-9.363-.21-9.348-.41-9.222-.634-9.09-.847-6.825-.805-6.675-.941-6.54-1.082-6.398-1.22-6.41-1.401-6.2-1.563-6-1.71-5.808-1.864-3.37-1.57-3.204-1.715-3.047-1.856-2.894-2.004-2.797-2.164-2.657-2.27-2.527-2.378-2.394-2.488-3.024-3.477-2.812-3.594-2.606-3.719-2.433-3.832-2.239-3.87-2.054-3.907-1.91-3.984-1.735-3.922-1.566-3.867-2.13-5.817-1.78-5.457-1.563-5.344-1.258-4.757-1.094-4.543-.84-3.73zm0 0" fill="#47b0f1" fill-opacity=".051"/><path d="M61.719 128.516v.058l.648.215.551.332.473.461.363.547.223.617.086.7v.39l-.106.785-.293.695-.46.59-.59.461-.696.293-.785.106h-30.86l-.785-.106-.695-.293-.59-.46-.46-.59-.294-.696-.105-.785v-.39l.105-.786.293-.695.461-.59.59-.46.695-.294.785-.105h12.305l.727-.102.629-.254.546-.414.43-.535.278-.617.124-.719v-.094l-.101-.726-.254-.63-.414-.546-.535-.43-.617-.277-.72-.125h-1.265v-.059l-.648-.215-.551-.332-.473-.457-.363-.55-.223-.618-.086-.699v-.39l.106-.786.293-.695.46-.59.59-.46.696-.294.785-.105h30.86l.785.105.695.293.59.461.46.59.294.695.105.786v.39l-.105.785-.293.696-.461.59-.59.46-.695.293-.785.106H60.547l-.727.101-.629.254-.546.414-.43.536-.278.617-.124.719v.093l.101.727.254.629.414.547.535.43.617.277.72.125zm0 0" fill="url(#a)"/><path d="M335.156 62.11v.058l.649.215.55.332.473.46.363.548.223.617.086.7v.39l-.105.785-.293.695-.461.59-.59.46-.696.294-.785.105h-30.86l-.784-.105-.696-.293-.59-.461-.46-.59-.293-.695-.106-.785v-.39l.106-.786.293-.695.46-.59.59-.461.696-.293.785-.106h12.305l.726-.101.63-.254.546-.414.43-.535.277-.617.125-.72v-.093l-.102-.727-.253-.628-.415-.547-.535-.43-.617-.277-.719-.125h-1.265v-.059l-.649-.215-.55-.332-.473-.457-.363-.55-.223-.618-.086-.7v-.39l.105-.785.293-.695.461-.59.59-.46.696-.294.785-.105h30.86l.784.105.696.293.59.461.46.59.293.695.106.785v.39l-.106.786-.293.695-.46.59-.59.461-.696.293-.785.106h-12.305l-.726.101-.63.254-.546.414-.43.535-.277.617-.125.72v.093l.102.727.253.628.415.547.535.43.617.277.719.125zm0 0" fill="url(#b)"/><path d="M200.984 278.125l12.832.09 12.438.258 12.05.414 12.063.59 11.528.73 11.007.867 11.008 1.04 10.336 1.152 9.692 1.254 9.683 1.445 8.867 1.52 8.098 1.581 5.273.133 5.055.29 4.844.445 4.832.613 4.531.738 4.242.863 4.215 1.036 3.828 1.125 3.469 1.203 3.406 1.402 2.946 1.441 2.527 1.477 1.844 1.273 1.547 1.274 1.28 1.266 1.052 1.265.898 1.41.625 1.399.371 1.402.129 1.426-.121 1.383-.352 1.363-.586 1.363-.851 1.367-.988 1.235-1.211 1.234-1.461 1.242-1.739 1.246-2.394 1.45-2.79 1.418-3.226 1.382-3.285 1.2-3.637 1.125-4.004 1.047-4.035.878-4.312.774-4.613.656-5.094 1.399-5.606 1.382-6.16 1.368.16 1.214.055 1.227-.11 1.707-.308 1.684-.508 1.675-.722 1.672-.954 1.68-1.062 1.539-1.258 1.54-1.465 1.542-1.687 1.55-1.93 1.56-2.43 1.726-2.73 1.715-3.055 1.7-3.406 1.675-3.383 1.492-3.66 1.445-3.945 1.399-4.258 1.351-4.203 1.192-4.442 1.12-4.687 1.052-4.945.972-6.559 1.09-6.902.922-7.258.75-7.27.527-7.52.328-7.78.114-6.13-.07-5.96-.204-5.805-.332-5.652-.453-5.703-.59-5.481-.703-5.258-.805-5.054-.906-5.11-1.054-4.824-1.137-4.547-1.219-4.289-1.285-4.34-1.465-3.996-1.516-3.668-1.562-3.367-1.602-3.383-1.812-2.988-1.832-2.63-1.84-2.3-1.848-1.797-1.671-1.535-1.66-1.293-1.653-1.066-1.645-.86-1.648-10.922-.914-10.316-1.027-9.73-1.133-9.727-1.305-8.992-1.387-8.297-1.453-8.277-1.656-7.418-1.691-6.621-1.723-5.028-1.48-4.457-1.47-3.933-1.456-3.45-1.442-2.89-1.37-2.469-1.333-2.094-1.297-1.758-1.261-1.457-1.223-1.218-1.238-.942-1.192-.699-1.164-.48-1.137-.282-1.12-.101-1.126.097-1.105.274-1.106.465-1.117.672-1.136.906-1.172 1.172-1.211 1.406-1.207 1.695-1.243 2.024-1.273 2.379-1.312 2.789-1.344 3.328-1.422 3.797-1.438 4.304-1.453 4.856-1.46 6.394-1.708 7.172-1.68 8.008-1.644 8.027-1.45 8.707-1.386 9.422-1.312 9.43-1.145 10-1.047 10.598-.941 10.593-.785 11.063-.664 11.535-.532 11.531-.378 11.88-.231zm0 0" fill="url(#c)"/><path d="M268.207 88.535v-.039l-.625-1.414-.785-1.27-.945-1.128-1.086-1.004-1.192-.868-1.3-.73-1.38-.59-1.417-.445-1.473-.305-1.496-.16-1.469-.008-1.457.137 1.113-.613 1.203-.528 1.305-.441 1.34-.32 1.348-.196 1.363-.07 1.36.074 1.284.227 1.227.375 1.148.55 1.024.727.91.926v.035l.906-.914 1.024-.727 1.152-.546 1.23-.375 1.29-.227 1.359-.074 1.367.066 1.348.192 1.34.32 1.304.433 1.2.528 1.101.613-1.453-.129-1.469.02-1.496.164-1.469.304-1.421.45-1.375.59-1.305.73-1.192.863-1.086 1-.945 1.125-.785 1.262-.625 1.406zm0 0" fill="url(#d)"/><path d="M300.793 83.637v-.028l-.438-.984-.543-.879-.644-.781-.758-.692-1.129-.78-1.219-.606-1.324-.438-1.37-.261-1.356-.075-1.352.102 1.176-.617 1.332-.48 1.394-.302 1.415-.101.941.047.89.156.852.262.797.382.707.504.629.641v.023l.633-.632.71-.504.798-.38.851-.26.895-.157.941-.05 1.414.105 1.395.296 1.328.477 1.172.613-1.352-.093-1.355.082-1.371.261-1.325.442-1.218.605-1.13.778-.984.94-.793 1.102zm0 0" fill="url(#e)"/><path d="M287.203 70.168v-.023l-.437-.989-.543-.875-.649-.785-.754-.691-1.129-.782-1.218-.605-1.325-.438-1.37-.261-1.356-.074-1.356.101 1.18-.617 1.332-.477 1.395-.3 1.414-.106.941.047.89.156.852.262.793.383.711.504.63.64v.024l.632-.633.707-.504.8-.379.852-.258.89-.156.946-.055 1.414.106 1.395.297 1.328.476 1.172.617-1.352-.097-1.355.082-1.371.262-1.325.44-1.222.606-1.125.778-.985.941-.793 1.102zm0 0" fill="url(#f)"/><path d="M328.406 85.965v-.016l-.422-.894-.546-.766-.684-.656-.781-.54-.844-.421-.918-.305-.953-.18-.942-.05-.933.07 1.11-.547 1.269-.367.883-.117.855.008.836.12.789.262.684.414.597.567v.016l.598-.563.687-.406.793-.262.836-.125.856-.008.887.117 1.269.36 1.102.547-.938-.067-.937.059-.954.18-.918.304-.847.422-.781.54-.68.651-.55.766zm0 0" fill="url(#g)"/><path d="M48.504 139.219l-3.07-1.27-2.614-.855-2.203-.512-1.86-.23-1.562.011-1.316.211-1.11.387-.937.547-.797.71-.664.891-.539 1.106-.402 1.351-.246 1.657-.055 2.015.172 2.434.488 1.871.574 1.492.645 1.172.703.906.762.68.828.484 2.34 2.996 1.84 2.637 1.402 2.317 1.027 2.03.707 1.782.438 1.559.203 1.375.25 1.66.496 1.656.473 1.059.597.996.727.933.84.828.984.715 1.148.606 1.223.433 1.414.274 1.64.097 1.638-.105 1.886-.336 2.176-.61 1.754-.464 1.59-.195 1.46.046 1.356.27 1.27.492 1.207.723 1.152.972 1.106 1.258 1.062 1.586 1.008 1.969.945 2.41.871 2.918 1.696 2.055 1.855 1.879 2.016 1.707 2.191 1.547 2.371 1.386 2.574 1.223 2.782 1.059 3.015.89 3.27.707 3.535.52 3.832.316 4.148.098 4.489-.14 4.855-.4 3.547-.488 2.86-.605 2.265-.695 1.766-.766 1.355-.812 1.012-.852.726-.89.485-.942.262-1.012.046-1.105-.195-1.23-.473-1.391-.808-1.59-1.215-1.824-1.707-2.09-2.297-2.399-2.988-2.742-3.793-3.129-4.727-3.562-4.933-1.86-3.922-1.316-3.067-.871-2.351-.512-.918-.258-.817-.425-.722-.606-.649-.8-.566-1.044-.48-1.324-.372-1.668-.234-2.074-.07-2.547-.094-1.262-.29-1.168-.476-1.093-.68-1.04-.898-.988-1.148-.945-1.438-.899-1.77-.847-2.16-.785-2.167-.805-1.707-.855-1.32-.899-.997-.934-.722-.968-.481-1.02-.262-1.086-.039-1.18.196-1.292-1.215-1.606-1.2-1.246-1.18-.934-1.175-.667-1.184-.43-1.203-.207-1.242.012-1.305.234-1.39.484-1.488.766-1.614 1.09-1.847 1.281-1.7.945-1.574.657-1.46.398-1.368.172-1.297-.035-1.238-.239-1.203-.437-1.176-.649zm0 0" fill="url(#h)"/><path d="M47.906 145.121l18.856 12.586-.82-3.883-.852-3.297-.88-2.773-.894-2.313-.39-.984.011-.031.575 1.144 1.14 2.63 1.313 3.433.605 1.828.489 1.738.347 1.688.13 1.336 15.718 10.492-.043-.063.207-4.449.008-3.492-.145-2.691-.258-2.024-.335-1.484.28.566.344 1.192.282 1.37.273 1.735.395 3.707.113 1.887.04 1.691-.048 1.586-.133 1.125 14.461 9.649-.132-.16.105-.915.184-2.226.062-2.75-.086-1.367-.18-1.13.207.43.235.977.324 2.512.164 2.832-.031 2.367 11.933 7.965-1.511 1.511-12.32-8.722-1.153.594-1.203.484-1.25.375-1.895.394-1.742.204-1.652.062-1.207-.059 2.578-.335 2.121-.47 1.734-.581 1.395-.672 1.117-.75.504.363.473.262-34.696-24.57.22.27-2.638.284-2.492.098-2.355-.082-2.23-.25-2.118-.414-2.012-.567.122-.082.328-.027.699.102 2.75.492 1.805.21 2.23.083 1.523-.059 1.665-.195 1.812-.348zm16.145 30.02l1.562-.067 1.754-.308 1.973-.59 2.226-.914 2.516-1.293 2.844-1.727 3.207-2.238.867.867-2.148 1.566-2.09 1.313-2.04 1.07-2.113.918-1.957.68-1.808.46-1.852.29-1.586.078zm0 0" fill="url(#i)"/><path d="M62.332 112.219l-2.91-1.864-2.48-1.359-2.11-.941-1.785-.59-1.512-.305-1.281-.062-1.09.132-.941.313-.813.484-.71.66-.622.864-.52 1.11-.413 1.401-.282 1.754-.113 2.18.09 2.672 1.16 4.473.922 3.812.742 3.64.441 3.173.141 2.074-.023 1.965-.172 1.867-.114 1.144-.015 1.293.098 1.461.214 1.442.36 1.515.511 1.602.653 1.55.836 1.555 1.039 1.575 1.187 1.464 1.426 1.418 1.688 1.375 1.336.907 1.5.851 1.683.797 1.879.734 2.383.93 1.89.945 1.473.942 1.117.945.82.942.575.949.347.965.149 1-.055 1.058-.277 1.137-.524 1.238-.82 1.367-.2 1.34.024 1.274.23 1.226.442 1.192.672 1.175.926 1.176 1.219 1.176 1.558 1.184 1.95 1.183 2.406 1.188 2.922 1.18 3.515 1.163 4.184 1.137 4.937 1.094 5.77 1.039 4.773.684 3.922.406 3.184.176 2.469.004 2.042-.114 1.672-.21 1.348-.29 1.395-.46 1.078-.524.82-.582.61-.633.48-.758.324-.824.168-.906.008-1.008-.192-1.336-.398-1.492-.64-1.672-1.188-2.473-1.54-2.734-3.515-5.629-2.156-2.305-1.555-1.949-.898-1.324-.7-1.215-.53-1.121-.606-1.73-.356-1.66-.18-1.68-.046-1.75.078-1.215.195-1.371.418-2.88.07-1.484-.124-1.476-.22-.961-.378-.941-.543-.934-.68-.84-.933-.832-1.227-.828-1.32-.676-1.696-.656-2.14-.625-1.375-.418-1.246-.594-1.133-.77-1.031-.96-.942-1.168-.844-1.403-.746-1.672-.632-1.98-.508-2.324-.36-2.723-.191-3.164-.313-1.18-.48-.996-.644-.836-.817-.703-1.02-.574-1.261-.437-1.55-.282-1.895-.093-2.301.128-2.781.407-3.333.738-1.386.172-1.39-.024-1.4-.218-1.429-.426-1.465-.645-1.515-.882-1.575-1.16-1.644-1.462zm0 0" fill="url(#j)"/><path d="M56.617 119.04l13.844 17.6.027-.066.664-1.855.45-1.836.25-1.828.05-1.828-.148-1.84-.348-1.86-.031-.12.004.015.758 2.262.328 1.242.222 1.406.047 1.48-.207 1.731-.277 1.16-.453 1.317-.656 1.484 11.73 14.914.074-.106 1.02-1.648.851-1.828.688-2.035.512-2.258.32-2.508.11-2.793.16.781.101 1.47-.023 1.64-.18 2.027-.352 2.086-.578 2.164-.52 1.414-.64 1.332-.766 1.254 10.395 13.211.887-1.578.496-1.11.465-1.367.324-1.453.125-1.582.137 1.137.043 1.289-.098 1.328-.29 1.426-.308.934-.433.964-.57 1 15.335 19.5h-2.433l-14.825-19.746-1.82.707-1.594.508-1.398.34-2.07.316-1.664.055-1.551-.129-1.215-.242-1.094-.344-.8-.332 1.628.305 1.66.117 1.696-.066 1.75-.262 1.808-.461 1.883-.684 1.965-.918-11.277-15.015.195.355-2.84.883-2.77.656-2.757.453-2.543.23-2.461.024-2.106-.183-1.355-.254-1.125-.336-.934-.402 1.282.382 1.492.25 1.742.094 2.031-.086 2.352-.293 2.722-.543 3.133-.824 3.598-1.152-.168.058-12.566-16.734.07.203-2.106.027-1.941-.183-1.8-.375-1.673-.563-1.566-.746-1.465-.941-1.375-1.137-1.293-1.351.192-.016.5.3 1.503 1.098 1.04.664 1.374.727 1.528.617 1.894.524 1.325.23 1.5.125 1.699.012zm0 0" fill="url(#k)"/><path d="M105.156 112.793l1.39-1.742 1.263-1.246 1.144-.836 1.055-.508.992-.23.95.003.94.243.962.503 1 .805 1.05 1.188 1.11 1.652 1.172 2.223.441 2.07.238 1.836.36 3.36.191 1.015.29.953.394.898.515.825.727.812.972.805 1.075.672 1.441.695 1.879.707 1.594.629 1.262.695.98.754.746.809.54.87.35.946.173 1.043-.028 1.16-.242 1.309-.5 1.488-.805 1.696-1.164 1.94-.539 1.49-.238 1.269.004 1.086.215.941.418.84.632.75.887.68 1.188.601 1.566.512 1.05.371.786.484.582.59.399.707.226.856.04 1.043-.2 1.289-.488 1.586-.86 1.949-1.32 2.383-1.883 2.89-.855 2.223-.47 1.805-.163 1.46.082 1.18.285.961.465.785.656.649.914.777 1.078 1.153.664.867.637 1.031.61 1.219.476 1.265.363 1.457.239 1.668.05 1.68-.156 1.91-.394 2.172-.598 2.113-.918 2.395-1.297 2.71-.836 1.395-.867 1.172-.898.973-.93.793-1.39.894-1.423.637-1.472.395-1.524.187h-1.539l-1.566-.187-1.547-.344-1.516-.48-1.496-.614-2.133-1.113-1.937-1.281-1.754-1.43-1.418-1.43-.824-1.031-.61-.945-.425-.871-.395-1.278-.238-1.324-.082-1.379.09-2.094.27-2.132.714-4.149.273-1.988.086-1.766-.086-1.137-.242-1.003-.39-.887-.493-.653-.687-.656-.922-.66-1.5-.91-1.762-.984-1.789-1.04-1.785-1.175-1.121-.88-1.016-.972-.906-1.074-.746-1.18-.559-1.332-.367-1.52-.11-1.144.044-1.285.21-1.453.403-1.645 1.012-1.5.992-1.289.973-1.242.84-1.184.48-.82.379-.863.273-.922.145-.945-.008-1.094-.176-1.273-.32-1.243-.555-1.504-.828-1.808-1.11-2.086-.847-1.453-1.3-2.14-.391-.802-.16-.636.03-.645.266-.785.45-.852.785-1.257 2.277-3.48 1.285-1.485 1.38-1.957 1.48-2.512 1.582-3.16zm0 0" fill="url(#l)"/><path d="M111.762 124.418l4.433 22.23 2.164-3.324 1.727-2.933 1.34-2.582 1.004-2.266.422-.973.027-.015-.402 1.218-1.051 2.665-1.5 3.355-.867 1.719-.883 1.574-.946 1.441-.855 1.036 3.695 18.535.016-.075 3.289-3 2.477-2.464 1.8-2.004 1.25-1.618.813-1.285-.207.598-.598 1.086-.77 1.168-1.03 1.418-2.344 2.902-1.25 1.414-1.172 1.227-1.156 1.086-.887.703 3.402 17.047.02-.207.722-.57 1.703-1.446 1.989-1.902.906-1.028.672-.925-.16.453-.524.855-1.547 2.008-1.886 2.117-1.696 1.653 2.805 14.066h-2.137l-2.543-14.879-1.234-.394-1.191-.508-1.153-.621-1.62-1.059-1.372-1.086-1.21-1.125-.817-.894 2.058 1.586 1.836 1.167 1.633.813 1.465.516 1.32.257.102.61.144.52-7.16-41.907-.035.344-2.066-1.66-1.829-1.696-1.605-1.722-1.402-1.754-1.204-1.785-1.023-1.828.145.03.246.212.425.566 1.598 2.293 1.129 1.426 1.516 1.633 1.12 1.039 1.313 1.035 1.531 1.035zm-9.813 32.644l1.153 1.06 1.457 1.019 1.812.976 2.219.93 2.695.867 3.235.785 3.847.688v1.226l-2.629-.41-2.402-.555-2.2-.68-2.148-.847-1.86-.902-1.605-.957-1.515-1.102-1.176-1.066zm0 0" fill="url(#m)"/><path d="M161.36 315.82l2.413.844 1.457.672.833.52.484.425.242.36.11.398-.047.371-.204.371-.492.504-.738.531-1.707.977-1.281.805-.856.71-.527.63-.371.714-.145.664.051.641.211.625.344.637.492.648.86.91.995.91.75.536 1.286.68 2.023.855 2.047.726 2.55.774 3.133.824 3.149.707 3.57.672 4.035.625 4.036.492 4.37.371 4.72.25 4.71.078 4.946-.113 5.187-.316 3.86-.375 3.937-.52 4.016-.668 4.101-.824 3.856-.934 3.312-.941 2.824-.938 2.391-.93 2.465-1.128 2.031-1.094 1.645-1.058 1.312-1.02 1.266-1.211.965-1.152.699-1.102.472-1.062.32-1.157.137-1.117-.027-1.086-.2-1.066-.472-1.387-.683-1.324-.903-1.281-1.05-1.176-1.157-1.074-1.27-.977-1.816-1.11-2.992-1.468-3.414-1.422-4.426-1.594-4.777-1.476-5.621-1.485-3.863-.87-4.153-.81-4.465-.734-4.472-.593-4.692-.461-4.918-.325-4.922-.144-5.07.047-5.219.246-4.695.383-4.027.433-3.43.473-3.418.586-2.816.59-2.293.59-2.27.707-1.734.664-1.29.617-1.23.75-.78.648-.45.563-.621 1.054-.461.993-.32.945-.16.96.058.927.273.906.48.824.798.86 1.203.914 1.316.746 1.805.797zm0 0" fill="url(#n)"/><path d="M93.785 310.27v-25.59h8.504v-13.196h-8.504v-63.437H79.781v63.437H60.223l-1.172-.078-1.012-.222-.875-.356-.762-.484-.879-.875-.597-.906-.348-.95-.117-1.02.062-.94.274-2.208 8.441-55.398H49.371l-9.379 60.156-.152 1.34-.05 1.34.081 1.816.227 1.598.359 1.414.48 1.242.594 1.098 1.16 1.629 1.223 1.363 1.285 1.121 1.352.906 1.43.7 1.515.5 1.617.304 1.742.106h26.926v25.59zm0 0" fill="url(#o)"/><path d="M199.945 114.688l4.461.109 4.371.3 4.297.5 4.219.688 4.148.88 4.133 1.07 4.035 1.242 3.942 1.41 3.855 1.582 3.77 1.746 3.699 1.922 3.59 2.066 3.476 2.211 3.371 2.36 3.27 2.507 3.16 2.653 3.031 2.777 2.899 2.902 2.777 3.028 2.653 3.16 2.507 3.27 2.364 3.37 2.21 3.48 2.063 3.587 1.922 3.699 1.75 3.77 1.578 3.855 1.41 3.941 1.242 4.036 1.075 4.132.875 4.149.691 4.222.496 4.293.305 4.375.105 4.458-.105 4.457-.305 4.375-.496 4.292-.691 4.22-.875 4.152-1.075 4.132-1.242 4.032-1.41 3.945-1.578 3.852-1.75 3.77-1.922 3.702-2.062 3.586-2.211 3.477-2.364 3.375-2.507 3.27-2.653 3.16-2.777 3.027-2.899 2.902-3.03 2.774-3.161 2.652-3.27 2.512-3.37 2.359-3.477 2.21-3.59 2.067-3.7 1.918-3.769 1.75-3.855 1.578-3.942 1.41-4.035 1.243-4.133 1.074-4.148.879-4.219.687-4.297.496-4.37.305-4.462.11-4.457-.11-4.37-.305-4.298-.496-4.218-.687-4.153-.88-4.129-1.073-4.035-1.242-3.941-1.41-3.856-1.579-3.77-1.75-3.698-1.918-3.59-2.066-3.477-2.211-3.371-2.36-3.27-2.511-3.16-2.652-3.03-2.774-2.9-2.902-2.777-3.028-2.652-3.16-2.512-3.27-2.36-3.374-2.21-3.477-2.066-3.586-1.918-3.703-1.75-3.77-1.579-3.851-1.41-3.945-1.242-4.032-1.074-4.132-.879-4.153-.688-4.219-.496-4.292-.304-4.375-.11-4.458.11-4.457.304-4.375.496-4.292.688-4.223.879-4.149 1.074-4.132 1.242-4.036 1.41-3.941 1.579-3.855 1.75-3.77 1.918-3.7 2.066-3.585 2.21-3.48 2.36-3.372 2.512-3.27 2.652-3.16 2.778-3.027 2.898-2.902 3.031-2.777 3.16-2.653 3.27-2.508 3.371-2.359 3.477-2.21 3.59-2.067 3.699-1.922 3.77-1.746 3.855-1.582 3.941-1.41 4.035-1.243 4.13-1.07 4.152-.879 4.218-.687 4.297-.5 4.371-.301zm0 31.25l-3.468.097-3.391.278-3.316.445-3.25.62-3.188.79-3.16.965-3.07 1.113-2.98 1.258-2.9 1.41-2.82 1.555-2.742 1.707-2.633 1.828-2.527 1.95-2.422 2.081-2.324 2.207-2.211 2.324-2.078 2.422-1.953 2.528-1.828 2.632-1.704 2.743-1.558 2.82-1.406 2.898-1.262 2.98-1.11 3.071-.964 3.16-.79 3.188-.62 3.25-.45 3.32-.273 3.39-.102 3.47.102 3.468.273 3.39.45 3.317.62 3.25.79 3.188.965 3.164 1.109 3.066 1.262 2.985 1.406 2.898 1.558 2.816 1.704 2.743 1.828 2.632 1.953 2.528 2.078 2.426 2.21 2.324 2.325 2.207 2.422 2.078 2.527 1.953 2.633 1.828 2.742 1.703 2.82 1.559 2.9 1.406 2.98 1.262 3.07 1.11 3.16.964 3.188.793 3.25.617 3.316.45 3.39.273 3.47.101 3.472-.101 3.39-.274 3.317-.449 3.25-.617 3.188-.793 3.16-.965 3.07-1.11 2.98-1.26 2.899-1.407 2.82-1.559 2.742-1.703 2.633-1.828 2.528-1.953 2.421-2.078 2.325-2.207 2.21-2.324 2.079-2.426 1.953-2.528 1.828-2.632 1.703-2.743 1.559-2.816 1.406-2.898 1.258-2.985 1.113-3.066.965-3.164.789-3.188.621-3.25.45-3.316.273-3.39.097-3.47-.097-3.468-.274-3.39-.449-3.321-.621-3.25-.79-3.188-.964-3.16-1.113-3.07-1.258-2.98-1.406-2.9-1.559-2.82-1.703-2.742-1.828-2.632-1.953-2.528-2.078-2.422-2.211-2.324-2.325-2.207-2.421-2.082-2.528-1.95-2.633-1.827-2.742-1.707-2.82-1.555-2.899-1.41-2.98-1.258-3.07-1.113-3.16-.965-3.188-.79-3.25-.62-3.316-.446-3.391-.277zm0 0" fill="url(#p)"/><path d="M351.598 310.27v-25.59h8.504v-13.196h-8.504v-63.437h-14.004v63.437h-19.559l-1.172-.078-1.011-.222-.875-.356-.762-.484-.88-.875-.597-.906-.347-.95-.118-1.02.063-.94.273-2.208 8.442-55.398h-13.867l-9.38 60.156-.152 1.34-.05 1.34.082 1.816.226 1.598.36 1.414.48 1.242.594 1.098 1.16 1.629 1.223 1.363 1.285 1.121 1.351.906 1.43.7 1.516.5 1.617.304 1.742.106h26.926v25.59zm0 0" fill="url(#q)"/><path d="M201.223 181.25l1.32.215 1.262.367 1.207.531 1.129.676 1.035.813.945.957.762.98.62 1.074.017.035-.07-.367.355.207.308.38.258.616.219 1.043.09 1.356v.07l.394-.023.363.12.352.282.41.586.301.805.133.879-.067.91-.164.582-.277.515-.395.465-.488.356-.648.246-.856.125-.258.597-.261.446-1.164 1.742-1.328 1.762-.758.8-.824.692.015 4.578-9.05.129.038-5.379-.691-.64-.621-.723-.55-.817-.907-1.554-.727-1.633.18-.012-1.035-.035-.77-.2-.57-.331-.473-.47-.328-.538-.199-.617-.082-.977.145-.945.34-.852.46-.59.387-.25.398-.062.446.117.008-.734.27-1.493.487-1.425.696-1.332.894-1.223.996-.973 1.102-.773 1.21-.586 1.294-.383 1.332-.168zm8.5 6.688l.004.14.05.504.164.477zm-.203-1.04l.203 1.04-.004-.118-.082-.629-.035-.125zm0 0" fill="#ebb0b0"/><path d="M210.754 191.098l.57-.664.531-.836.489-1.043.535-1.66.336-1.875.094-1.286-.032-1.277-.148-1.27-.285-1.238-.434-1.137-.57-1.046-.73-.93-.907-.77-1.098-.617-.37-.34-.497-.273-.644-.203-1.063-.164-1.37-.067-.63.028-.398.078-.61.21-.261.06-.32-.012-.344-.153-.512-.375-.57-.43-.797-.488-.918-.386-1.246-.278-.61-.02-.918.09-.968.18-1.055.266-1.031.336-.899.379-.785.453-.46.426-.923.812-1.027 1.203-.926 1.395-.855 1.699-.461 1.21-.356 1.306-.254 1.406-.086 1.543.133 1.3.324 1.223.465 1.121.578 1.075.657 1.078 1.386 2.27.746-.637.594-.813.942-1.879.472-.95.535-.855 1.32-1.378 1.462-1.215 1.593-1.035 1.711-.848 1.832-.242 1.5-.114 1.407.04 1.175.238.72.293.683.418.656.566.57.66.59.864.613 1.113zm0 0" fill="#131322"/><path d="M196.316 202.98l1.504 1.02.801.52.8.445.829.316.797.13.617-.099.715-.34.695-.472.7-.547 1.222-.973 1.926.184 2.41.434 2.512.636 2.816.922 2.844 1.149 2.976 1.453 1.946 1.101 1.937 1.239 1.926 1.386-.047 5.371-.129 4.375-.222 4.079-.282 3.355-.367 3.16-.418 2.719-.488 2.613-.535 2.453-1.223 5.004-1.375 5.68-.64 1.297-1.579 2.824-2.109 3.606-2.23 3.625-1.95 2.886-.828 1.031-.43.372-1.539.718-1.453.563-1.375.418-2.097.433-2.067.207-2.082.024-2.187-.117-4.696-.5-.468-.18-.95-.586-2.28-1.723-2.548-2.101-2.207-1.914-1.258-1.153-.27-.367-.523-.926-1.25-2.492-1.406-3.015-1.27-2.871-.843-2.051-.977-2.863-.484-1.66-.418-1.673-.316-1.644-.141-1.352-.227-5.867-.25-6.918-.214-7.242-.133-6.844 1.203-1.57 1.246-1.313 1.285-1.082 1.399-.945 1.418-.789 1.449-.633 2.242-.754 2.238-.554 4.375-.793 2.082-.383zm0 0" fill="url(#r)"/><path d="M194.316 208.047h11.72l.612.125.493.332.336.492.12.613v18.75l-.12.614-.336.492-.493.332-.613.125h-11.719l-.609-.125-.492-.332-.336-.492-.125-.614v-18.75l.125-.613.336-.492.492-.332zm0 0" fill="url(#s)"/><path d="M188.184 227.488l.836-2.203.925-1.883 1.008-1.597 1.082-1.344.746-.383.348-.09.21.075.02.21-.129.282-.292.386.902-.23.625-.086.75.008.754.148.789.364.472.347.47.504.464.684.36.742.324.98.28 1.274-.35.937-.567 1.121-.711 1.106-.895 1.11-1.039 1-1.195.843-.871.445-.934.32-1.004.192-.921-.133-.743-.308-.601-.48-.484-.665-.364-.902-.222-1.2zm0 0" fill="#efba9e"/><path d="M173.984 212.45l1.309-1.415 1.207-.988 1.125-.633 1.063-.348 1.027-.093 1.023.148 1.035.402 1.082.696 1.141 1.043.508.668.476 1.035.434 1.527.41 2.45.27 3.206.105 3.415-.031 3.89-.152 3.996-.262 4.188-.348 4.195-.418 4.09-.484 4.004-.508 3.61-1.016 1.089-.98.813-.945.582-.926.378-1 .235-.957.07-.926-.078-.906-.23-1.153-.508-1.05-.692-.969-.89-.832-1.028-.668-1.125-.512-1.23-.965-4.633-.668-4.309-.386-4.003-.133-3.72.101-3.46.325-3.223.527-2.996.727-2.797.918-2.613 1.097-2.438zm0 0" fill="url(#t)"/><path d="M174.953 246.504l.645-2.39.882-2.352 1.137-2.325 1.403-2.296 1.683-2.286 1.988-2.277 2.317-2.27 2.676-2.265.87-.25.848-.102.84.047.805.2.738.359.676.527.547.664.445.864.328 1.109.086.684-.094 1.468-.27 1.672-.491 2.176-.653 2.277-.87 2.512-1.052 2.504-1.25 2.473-.953 1.585-1.027 1.47-1.11 1.347-1.226 1.23-1.293 1.02-1.371.828-1.789.262-1.441.02-1.16-.18-.934-.344-.75-.492-.602-.645-.46-.82-.317-1.035-.156-1.305.05-1.633zm0 0" fill="url(#u)"/><path d="M212.863 227.488l-.836-2.203-.93-1.883-1.003-1.597-1.082-1.344-.746-.383-.352-.09-.207.075-.02.21.125.282.297.386-.902-.23-.629-.086-.746.008-.754.148-.789.364-.476.347-.465.504-.465.684-.36.742-.328.98-.277 1.274.352.937.566 1.121.707 1.106.898 1.11 1.04 1 1.195.843.87.445.934.32 1.004.192.922-.133.742-.308.602-.48.48-.665.368-.902.222-1.2zm0 0" fill="#efba9e"/><path d="M227.063 212.45l-1.31-1.415-1.206-.988-1.125-.633-1.067-.348-1.027-.093-1.02.148-1.038.402-1.079.696-1.14 1.043-.508.668-.48 1.035-.43 1.527-.41 2.45-.274 3.206-.101 3.415.03 3.89.153 3.996.258 4.188.348 4.195.418 4.09.484 4.004.512 3.61 1.015 1.089.98.813.946.582.926.378 1 .235.957.07.926-.078.906-.23 1.152-.508 1.051-.692.969-.89.832-1.028.668-1.125.512-1.23.964-4.633.665-4.309.39-4.003.133-3.72-.102-3.46-.324-3.223-.531-2.996-.727-2.797-.914-2.613-1.097-2.438zm0 0" fill="url(#v)"/><path d="M226.09 246.504l-.64-2.39-.884-2.352-1.136-2.325-1.403-2.296-1.683-2.286-1.989-2.277-2.32-2.27-2.672-2.265-.87-.25-.852-.102-.836.047-.809.2-.734.359-.68.527-.547.664-.441.864-.328 1.109-.09.684.097 1.468.27 1.672.492 2.176.649 2.277.875 2.512 1.046 2.504 1.254 2.473.95 1.585 1.03 1.47 1.11 1.347 1.227 1.23 1.293 1.02 1.37.828 1.786.262 1.445.02 1.16-.18.934-.344.75-.492.602-.645.46-.82.317-1.035.152-1.305-.047-1.633zm0 0" fill="url(#w)"/><path d="M169.672 276.457l-1.094-4.168-.723-3.535-.414-2.973-.148-2.48.066-2.055.25-1.695.399-1.387.523-1.129.64-.906.755-.727.879-.558 1.023-.403 1.195-.234 1.41-.055 19.493 10.403 1.62.949 1.532.676 1.465.422 1.414.199 1.371-.012 1.352-.223 1.343-.433 1.352-.664 1.371-.914 3.066-2.34 3.13-2.082 3.195-1.844 3.27-1.61 3.343-1.374 3.426-1.153 1.664.25 1.367.41 1.125.543.922.676.738.805.582.953.422 1.125.25 1.332.059 1.578-.172 1.871-.45 2.215-.773 2.617-1.168 3.07-1.625 3.594-2.16 4.176-9.95-.191-17.331-.035-27.672.226-.676-.394-.613-.59-.555-.82zm0 0" fill="url(#x)"/><path d="M186.637 310.934l1.789-.184 1.312-.129.559.07.539.22.504.44.523.77.403.899.27.976.077.668-.031.582-.133.508-.933 2.105-1.024 2.176-.699 1.473-.52 1.043-.964 1.738-1.246 1.93-.696.89-.672.707-.71.54-.614.226-.656-.035-.535-.258-.457-.496-.317-.629-.222-.824-.106-1.067.031-1.07.172-1.207.332-1.355 1.024-3.176 1.101-3.102.88-2.355.359-.934zm0 0M212.602 310.934l-1.79-.184-1.312-.129-.559.07-.539.22-.504.44-.523.77-.402.899-.27.976-.078.668.031.582.133.508.934 2.105 1.023 2.176.7 1.473.519 1.043.965 1.738 1.246 1.93.695.89.672.707.71.54.614.226.656-.035.536-.258.457-.496.316-.629.223-.824.105-1.067-.031-1.07-.172-1.207-.332-1.355-1.023-3.176-1.102-3.102-.879-2.355-.36-.934zm0 0" fill="#333"/><path d="M164.402 266.367l-.136-.926-.168-2.375.02-1.5.155-1.71.329-1.723.562-1.723.516-1.094.656-1.02.805-.948.933-.817 1.137-.695 1.367-.57 1.656-.438 1.461-.242 1.297-.063 1.153.086 1.53.344 1.352.54 1.192.73 1.086.898.988 1.004.89 1.121 1.192 1.781 1.047 1.79 1.902 11.062 6.606 40.016-1.336 1.085-1.422.86-1.527.648-1.641.442-1.781.23-1.938.004-2.12-.238-1.325-3.863-2.278-6.149-2.878-7.57-3.133-8.13-3.043-7.823-2.606-6.66-1.816-4.63zm0 0" fill="url(#y)"/><path d="M234.633 266.367l.137-.926.167-2.375-.019-1.5-.152-1.71-.332-1.723-.559-1.723-.516-1.094-.66-1.02-.804-.948-.934-.817-1.137-.695-1.367-.57-1.656-.438-1.461-.242-1.297-.063-1.152.086-1.532.344-1.351.54-1.192.73-1.086.898-.988 1.004-.89 1.121-1.192 1.781-1.047 1.79-1.902 11.062-6.606 40.016 1.336 1.085 1.422.86 1.528.648 1.64.442 1.781.23 1.938.004 2.121-.238 1.324-3.863 2.278-6.149 2.879-7.57 3.132-8.13 3.043-7.823 2.606-6.66 1.816-4.63zm0 0" fill="url(#z)"/><path d="M358.75 307.625l.215-2.398-.008-2.075-.191-1.789-.364-1.539-.507-1.328-.649-1.14-.785-.977-.93-.832-1.086-.7-1.265-.558-1.47-.422-1.71-.262 1.934-.085 1.777.085 1.637.25 1.511.399 1.399.547 1.355.719 1.215.847 1.09.973.965 1.113.851 1.258.692 1.324.55 1.438.415 1.57.27 1.71.112 1.872-3.078.05zm0 0" fill="url(#A)"/><path d="M363.328 307.676l.426-2.531.183-2.325-.039-2.132-.242-1.97-.437-1.82-.625-1.691-.805-1.578-1-1.473-1.195-1.379-1.41-1.293-1.649-1.203 2.016.68 1.879.762 1.75.847 1.664.989 1.539 1.168 1.43 1.347.949 1.106.894 1.265.836 1.446.781 1.64.63 1.64.57 1.888.507 2.156.43 2.46-2.488.118-3.004.008zm0 0" fill="url(#B)"/><path d="M354.457 313.281l2.434-.008 2.148-.062 1.399-.121 1.214-.211 1.051-.29.98-.437.805-.59.649-.75.355-.636.274-.781.18-.957.07-1.168-.114-1.536-.312-1.441-.512-1.375-.691-1.293-.848-1.18-1.012-1.078-1.14-.941-1.262-.801-1.387-.652-1.457-.477-1.539-.297-1.64-.105-1.641.105-1.54.297-1.456.477-1.387.652-1.262.8-1.14.942-1.012 1.078-.848 1.18-.691 1.293-.512 1.375-.312 1.441-.113 1.536.078 1.16.203.953.308.785.403.644.715.743.882.593 1.078.442 1.145.293 1.297.207 1.469.12 2.238.063zm0 0" fill="url(#C)"/><path d="M367.41 313.281l2.856-.043 1.261-.133 1.02-.25.61-.27.5-.358.406-.461.28-.54.192-.71.074-.922-.125-1.25-.336-1.145-.55-1.07-.735-.953-.883-.82-1.046-.684-1.145-.508-1.242-.312-1.36-.118-1.359.118-1.242.312-1.145.508-1.046.683-.883.82-.735.954-.55 1.07-.336 1.145-.125 1.25.082.918.214.71.32.544.446.457.55.363.673.27 1.105.25 1.328.132zm0 0" fill="url(#D)"/><path d="M96.473 309.117l-.434-1.418-.629-1.246-.828-1.094-1.035-.96-1.274-.837-1.546-.703-1.739-.629-1.246-.59-.726-.472-.403-.402-.175-.352.011-.348.266-.355.668-.406 1.383-.16.82-.024.934.11.933.292 1.035.594.633.528.68.738.722.996.622 1.058.648 1.375.68 1.758.14.864v.847zm0 0" fill="url(#E)"/><path d="M96.633 309.59l-1.11-3.832-1.109-3.262-1.098-2.754-1.082-2.3-1.066-1.903-1.043-1.555-.531-.8-.383-.809-.246-.828-.121-.856.015-.765.133-.692.27-.632.375-.465.488-.328.531-.043.64.02.657.16.754.398.461.379.512.566.57.809.738 1.398.828 2.152.723 2.485.766 3.476.203 1.313.222 2.297.047 1.34-.035 1.398-.152 1.383-.285 1.246-.285.594zm0 0" fill="url(#F)"/><path d="M97.074 307.98l.371-1.828.188-2.12-.031-2.45-.282-2.828-.578-3.254-1.058-3.066-.504-1.551-.399-1.445-.261-1.41-.043-1.18.109-.739.246-.605.375-.496.5-.363.711-.258.996-.125.773.203.813.476.469.446.46.66.458.926.324.976.277 1.317.211 1.734.082 1.734-.035 2.192-.172 2.734-.336 2.117-.375 1.782-.441 1.691-.469 1.563-1.031 3.167-.379.137-.438.008zm0 0" fill="url(#G)"/><path d="M98.082 309.219l-.035-3.309.148-2.953.313-2.629.457-2.336.586-2.066.71-1.832.817-1.617.926-1.422 1.027-1.246.465-.465.692-.422.777-.277.8-.086.516.078.457.215.418.363.293.465.207.695.094 1.004-.227.96-.445 1.477-.644 1.61-1.114 2.156-.882 1.445-1.192 1.688-1.55 1.965-.747 1.101-.644 1.176-.54 1.188-.378.996-.266.914-.07.453-.106.383-.293.234zm0 0" fill="url(#H)"/><path d="M79.32 310.41l3.082-.64 1.727-.48.84-.349.324-.246.332-.3.809-.54.96-.496 1.227-.472 1.305-.301 1.355-.059.883.137.844.324.82.528.426-.391.644-.328.73-.172.79.023.504.145.476.285.461.438.332-.856.559-.773.715-.664.82-.551.875-.434.836-.285.817-.148.617.015.726-.03 1.059.065 1.101.223 1.184.485.723.468.68.653.632.863.469.965.355 1.261.211 1.637-4.894.024zm0 0" fill="url(#I)"/></svg>