<?xml version="1.0" standalone="no"?><!DOCTYPE svg PUBLIC "-//W3C//DTD SVG 1.1//EN" "http://www.w3.org/Graphics/SVG/1.1/DTD/svg11.dtd"><svg t="1514110066877" class="icon" style="" viewBox="0 0 1134 1024" version="1.1" xmlns="http://www.w3.org/2000/svg" p-id="2537" xmlns:xlink="http://www.w3.org/1999/xlink" width="221.484375" height="200"><defs><style type="text/css"></style></defs><path d="M957.645086 628.110481h-26.116805l-66.47414-146.941389h4.027486c78.501616 0 144.920774-64.412287 144.920774-144.920774A144.329709 144.329709 0 0 0 869.081627 191.327545a151.202552 151.202552 0 0 0-52.329828 10.061842l-48.316089-66.419157C726.167724 76.592299 659.734821 38.351799 589.288177 36.344929c-34.213014 0-64.412287 6.034356-80.508486 30.24051-80.522232 116.687133-247.587306 462.899741-293.882779 557.497556h-26.116804c-36.23363 0-66.419158 30.24051-66.419158 66.419157V845.498514c0 36.23363 30.24051 66.419158 66.419158 66.419158h772.892464c36.23363 0 66.419158-30.24051 66.419158-66.419158V690.515898c-4.027486-34.213014-34.213014-62.405417-70.446644-62.405417z m0 0" fill="#FFFFFF" p-id="2538"></path><path d="M957.645086 956.206274H184.697639C126.319708 956.206274 78.017365 907.890186 78.017365 849.526V694.529639c0-58.377931 48.302343-106.707765 106.680274-106.707765h2.00687c58.377931-122.748981 209.346806-428.714218 285.814061-539.421978 16.12369-22.130555 48.329834-50.267976 114.748991-48.302343 80.508486 2.00687 161.030718 44.288602 211.353677 114.735246l32.206144 44.274856c12.082458-2.00687 24.151171-4.027486 36.233629-4.027486 100.645917 0 185.181889 82.474119 185.18189 185.18189 0 82.474119-54.350445 152.975746-128.824575 175.120047l34.213014 74.474129c58.377931 0 106.680273 48.302343 106.680274 106.680274v154.996362c0 56.357315-48.302343 104.673403-106.680274 104.673403zM184.697639 668.371597a26.639141 26.639141 0 0 0-26.116805 26.116805v155.037598a26.639141 26.639141 0 0 0 26.116805 26.116805h772.947447a26.639141 26.639141 0 0 0 26.116804-26.116805V694.529639a26.639141 26.639141 0 0 0-26.116804-26.116805h-26.116805a39.752526 39.752526 0 0 1-36.288612-24.233645l-66.419158-146.900153c-6.034356-12.082458-4.027486-28.178657 4.027487-38.2405 8.041227-12.082458 20.123685-18.116815 34.213013-18.116815H871.14348c56.357315 0 102.652787-46.295472 102.652788-104.659657a103.958628 103.958628 0 0 0-104.673404-104.673403c-12.082458 0-26.116804 2.020616-38.2405 8.054972a41.869361 41.869361 0 0 1-48.316088-14.089329l-48.302343-66.419157C697.94783 108.784697 641.590515 78.599169 585.2332 78.599169c-16.096199 0-38.254246 2.020616-46.295473 14.089329-62.36418 90.584074-191.188754 344.205737-289.827801 551.490691-6.048102 14.089329-20.123685 22.144301-36.23363 22.144301h-28.178657z m0 0" fill="#E2E2E2" p-id="2539"></path><path d="M724.147108 336.27581a144.920774 144.920774 0 1 0 144.920774-144.962011 144.920774 144.920774 0 0 0-144.920774 144.962011z m0 0" fill="#FDFDFE" p-id="2540"></path><path d="M758.42885 245.664244c16.109945-18.116815 34.213014-34.213014 58.377931-42.267987l-48.371071-66.432903c-42.267986-58.377931-108.687144-96.618431-179.147533-98.625301-34.213014 0-64.412287 6.034356-80.508486 30.240511C416.161255 203.396257 202.814454 650.254782 202.814454 650.254782h742.748173z m0 0" fill="#ED1B2F" p-id="2541"></path><path d="M957.645086 915.945158H184.697639c-36.23363 0-66.419158-30.24051-66.419158-66.419158V694.529639c0-36.23363 30.24051-66.419158 66.419158-66.419158h772.947447c36.23363 0 66.419158 30.24051 66.419157 66.419158v154.996361c0 36.23363-30.24051 66.419158-66.419157 66.419158z m0 0" fill="#FDFDFE" p-id="2542"></path></svg>